<svg width="107" height="163" viewBox="0 0 107 163" fill="none" xmlns="http://www.w3.org/2000/svg">
<path fill-rule="evenodd" clip-rule="evenodd" d="M27.6541 0.227781L41.3891 4.00703C45.2436 5.06813 48.1229 9.14051 47.8092 13.0918L43.2325 71.1275C48.3053 69.2984 53.7817 68.2979 59.4893 68.2979C85.7117 68.2979 107 89.3624 107 115.306C107 137.984 90.7359 156.933 69.1266 161.345C86.7574 161.483 102.253 161.846 106.959 162.27H61.532C60.1702 162.329 58.8108 162.329 57.4514 162.27H1.27604C3.0221 162.106 6.43882 161.948 11.0058 161.81L1.26145 15.8705C1.242 15.5846 1.42195 15.2261 1.6627 15.0686L1.66757 15.0662C1.90589 14.9111 2.08341 14.5574 2.06395 14.2764C2.0445 13.9954 2.23418 13.6587 2.48466 13.5278L11.6356 8.68264C11.7816 8.60754 11.9688 8.56878 12.1561 8.56878C12.3676 8.56878 12.5792 8.61723 12.7373 8.70929C12.9148 8.81346 13.1604 8.86918 13.3987 8.86918C13.5568 8.8716 13.7149 8.84253 13.8632 8.78681L16.3826 7.72572L19.4029 3.25603C20.7477 1.26707 23.4106 5.67703e-05 25.9056 5.67703e-05C26.4966 -0.00236583 27.0851 0.0727347 27.6541 0.227781ZM26.4577 2.33746C25.2418 2.33746 23.9821 2.91162 23.2939 3.87339L22.5546 4.91268C21.2244 6.77323 22.0074 8.27524 24.2958 8.27524H24.3225L33.1501 8.23406C38.3494 8.20741 38.6266 6.69571 33.7702 4.85696L27.6809 2.55307C27.2894 2.40772 26.876 2.33504 26.4577 2.33746ZM11.8208 4.35389C12.5868 5.0201 12.8568 6.08605 12.4968 7.03328C12.1369 7.97809 11.225 8.60555 10.2036 8.60555L3.63281 12.065C2.85949 12.489 1.91593 12.4647 1.16207 12.0044C0.41063 11.5442 -0.0343953 10.7181 0.0020822 9.84349C0.0361279 8.96651 0.546813 8.17917 1.33229 7.77944L7.90311 4.31755C8.26788 4.12617 8.66184 4.03411 9.05093 4.03411C9.95071 3.55928 11.0548 3.68525 11.8208 4.35389ZM49.5856 161.289C45.1329 161.298 40.7094 161.325 36.4464 161.364L36.7236 156.565C40.7556 158.752 45.0891 160.341 49.5856 161.289ZM81.3665 89.6212C81.7726 89.2093 82.4292 89.1803 82.8718 89.5533C83.3046 89.9337 83.3679 90.5829 83.0153 91.0384L67.4418 110.695C69.1514 113.491 68.9398 117.176 66.6612 119.773C63.8378 122.99 58.9061 123.329 55.6523 120.529C52.4009 117.728 52.0532 112.842 54.8765 109.625C57.1697 107.013 60.8515 106.298 63.8962 107.621L81.3665 89.6212ZM9.39135 68.2521L8.80771 26.0674C8.74935 21.8375 12.1223 17.8427 16.3342 17.1498L27.314 15.3474C36.7884 13.7897 36.7057 13.0871 27.1243 13.7824L14.5322 14.6957C11.9813 14.875 9.61265 16.0597 7.9517 17.9856C6.29319 19.9116 5.48339 22.4141 5.70226 24.936L9.39135 68.2521ZM59.3413 154.523C56.5203 154.772 53.6313 154.731 50.7058 154.375C28.3646 151.659 12.4482 131.523 15.1865 109.441C17.9223 87.3565 38.284 71.6338 60.6253 74.352C61.9214 74.5094 63.1957 74.725 64.4457 74.9964L64.256 74.9721C42.1336 72.2831 21.9713 87.8531 19.2598 109.722C16.5483 131.591 32.3114 151.529 54.4338 154.22C56.0632 154.419 57.7022 154.521 59.3413 154.523Z" fill="url(#paint0_linear)"/>
<defs>
<linearGradient id="paint0_linear" x1="0" y1="81.1569" x2="107" y2="81.1569" gradientUnits="userSpaceOnUse">
<stop stop-color="#8444F9"/>
<stop offset="1" stop-color="#EB77C7"/>
</linearGradient>
</defs>
</svg>
